<?xml version="1.0" encoding="UTF-8"?>
<svg id="Layer_2" data-name="Layer 2" xmlns="http://www.w3.org/2000/svg" viewBox="0 0 152.07 173.23">
  <defs>
    <style>
      .cls-1 {
        fill: #47b7e2;
      }

      .cls-2 {
        fill: #fff;
      }

      .cls-3 {
        fill: #3871b6;
      }

      .cls-4 {
        fill: #fefefe;
      }

      .cls-5 {
        fill: #064c77;
      }
    </style>
  </defs>
  <g id="Layer_1-2" data-name="Layer 1">
    <g>
      <path class="cls-5" d="M76.26,80.44L6.4,40.08,75.84,0l70.55,39.98-70.11,40.46h-.03Z"/>
      <path class="cls-3" d="M152.07,51.04v80.18l-69.89,40.36v-80.18s69.89-40.36,69.89-40.36Z"/>
      <polygon class="cls-1" points="69.98 93.08 69.98 173.23 .16 133.03 0 52.62 69.98 93.08"/>
      <path class="cls-4" d="M71.16,22.45c20.72,3.96,20.78,18.25,20.78,18.25,0,0,6.65,3.14,6.75,8.4,0,0-3.23-2.28-6.3-.95-3.07,1.33-3.61,5.23-9.63,7.83-13.72,5.96-24.93-2.79-24.93-2.79,15.75,3.01,21.7-6.56,21.7-6.56-6.97-.82-25.41-10.9-25.41-10.9,13.97,4.15,19.33,4.56,19.33,4.56-3.45-.92-15.4-8.4-15.4-8.4,8.55,3.36,23.92,6.68,23.92,6.68-.82-10.74-10.77-16.19-10.77-16.19h0l-.03.06Z"/>
      <g>
        <path class="cls-2" d="M122.68,115.37c-1.96,4.8-4.57,8.57-8.32,10.94-5.44,3.46-9.15.89-8.12-5.82.96-6.44,6.74-14.13,11.91-15.75,2.41-.79,4.11-.13,5.12,2.05-1.48,1.35-2.83,2.54-4.23,3.77-.21.21-.5.14-.71.11-1.21-.63-2.62-.2-4.18,1.45-1.7,1.8-2.89,3.85-3.16,6.15-.34,2.58.59,3.93,2.36,3.52,1.84-.38,3.96-2.58,4.94-5.38l-4.95,2.93c.63-1.79,1.05-3.15,1.54-4.48.14-.4.71-.82,1.13-1.06,1.84-1.17,3.68-2.26,5.52-3.26.85-.5,1.34-1.03,1.69-2.19,1.89-5.79,6.12-10.82,10.65-12.87,4.67-2.12,7.53.94,6.57,6.89-1.24,7.47-8.72,15.77-14.04,15.66-1.84.14-2.98-.85-3.7-2.64h0ZM135.95,103.16c-.01-2.37-1.79-3.22-3.92-1.96-2.69,1.67-4.94,5.53-4.92,8.45.01,2.45,1.79,3.22,3.98,1.93,2.55-1.51,4.87-5.58,4.86-8.41Z"/>
        <path class="cls-2" d="M104.82,120.14c-.21.28-.49.76-.71.89-3.47,2.05-6.93,4.1-10.47,5.95.28-.41.57-.97.85-1.14,3.4-2.09,6.79-4.01,10.19-6.02.08.11.14.23.14.31h0Z"/>
        <path class="cls-2" d="M97.09,122.57c.28-.41.49-.85.77-1.01,2.61-1.63,5.31-3.14,7.92-4.68,0,.16.08.2.08.35-.35.37-.71.89-1.06,1.1-2.55,1.59-5.09,3.01-7.64,4.52,0-.08,0-.16-.08-.27h0Z"/>
        <path class="cls-2" d="M104.47,122.25c-.41,1.35-3.04,3.14-5.24,3.81,1.55-2.11,3.32-2.28,5.24-3.81Z"/>
      </g>
      <g>
        <path class="cls-2" d="M46.71,108.86c-1.97.67-3.88,1.29-5.86,1.9-.55.17-.79-.47-1.04-.89-1.08-1.94-2.42-3.48-4.2-4.4-2.81-1.4-5.33-1.46-7.19.56-1.81,2.04-2.14,4.9-.95,8.26,1.19,3.36,3.38,5.59,6.32,6.68,2.51.89,4.48.35,6.03-1.36.19-.15.31-.31.5-.53,2.01,2.03,4.01,4,6.02,5.96-1.76,3.71-7.2,6.64-13.81,3.8-7.15-3.16-12.36-11.13-13.01-18.88-.71-8.17,3.9-14.07,10.65-14.08,6.82-.06,13.58,5.87,16.52,12.97v.02Z"/>
        <path class="cls-2" d="M44.41,117.51l.02-2.34-1.41-.46.02-1.52c1.16.65,1.72.35,1.49-1.18l1.35.44c0,.55.05,1.06.05,1.6l1.71.56c.12.04.31-.25.37-.36.07-.32,0-.69.01-1.1l1.29.42c0,.48.05.98.05,1.54.36.19.73.31,1.16.51l-.02,1.45c-.36-.12-.74-.17-1.16-.31l-.02,2.27c.43.21.79.33,1.16.51l-.02,1.45c-.43-.07-.79-.18-1.22-.26,0,.48-.07.87-.08,1.35l-1.29-.42c-.06-.43-.06-.91-.11-1.41l-2.02-.66c0,.48-.07.87-.08,1.35l-1.29-.42c-.06-.43-.06-.85-.11-1.35-.49-.16-.92-.37-1.41-.53l.02-1.45c.55.04.98.11,1.53.29v.02ZM45.82,117.97l1.59.52c.19.06.5-.05.5-.19.07-.6.01-1.31.02-1.93l-2.09-.68-.02,2.27Z"/>
      </g>
    </g>
  </g>
</svg>